<?xml version="1.0" encoding="utf-8"?><!-- Uploaded to: SVG Repo, www.svgrepo.com, Generator: SVG Repo Mixer Tools -->
<svg width="800px" height="800px" viewBox="0 0 24 24" fill="none" xmlns="http://www.w3.org/2000/svg">
<path fill-rule="evenodd" clip-rule="evenodd" d="M14.9703 3.3437C13.0166 2.88543 10.9834 2.88543 9.02975 3.3437C6.20842 4.00549 4.0055 6.20841 3.3437 9.02975C2.88543 10.9834 2.88543 13.0166 3.3437 14.9703C4.0055 17.7916 6.20842 19.9945 9.02975 20.6563C10.9834 21.1146 13.0166 21.1146 14.9703 20.6563C17.7916 19.9945 19.9945 17.7916 20.6563 14.9703C21.1146 13.0166 21.1146 10.9834 20.6563 9.02975C19.9945 6.20842 17.7916 4.00549 14.9703 3.3437ZM10.9883 8.22523C11.2226 8.45955 11.2226 8.83945 10.9883 9.07376L9.07376 10.9883C8.96124 11.1009 8.80863 11.1641 8.6495 11.1641C8.49037 11.1641 8.33775 11.1009 8.22523 10.9883L7.26795 10.031C7.03363 9.79673 7.03363 9.41683 7.26795 9.18252C7.50226 8.9482 7.88216 8.9482 8.11647 9.18252L8.6495 9.71554L10.1398 8.22523C10.3741 7.99092 10.754 7.99092 10.9883 8.22523ZM12.3573 10.0854C12.3573 9.75406 12.6259 9.48543 12.9573 9.48543H16.3078C16.6392 9.48543 16.9078 9.75406 16.9078 10.0854C16.9078 10.4168 16.6392 10.6854 16.3078 10.6854H12.9573C12.6259 10.6854 12.3573 10.4168 12.3573 10.0854ZM10.9883 13.0117C11.2226 13.246 11.2226 13.6259 10.9883 13.8602L9.07376 15.7748C8.83945 16.0091 8.45955 16.0091 8.22523 15.7748L7.26795 14.8175C7.03363 14.5832 7.03363 14.2033 7.26795 13.969C7.50226 13.7346 7.88216 13.7346 8.11647 13.969L8.6495 14.502L10.1398 13.0117C10.3741 12.7774 10.754 12.7774 10.9883 13.0117ZM12.3573 14.8719C12.3573 14.5405 12.6259 14.2719 12.9573 14.2719H16.3078C16.6392 14.2719 16.9078 14.5405 16.9078 14.8719C16.9078 15.2032 16.6392 15.4719 16.3078 15.4719H12.9573C12.6259 15.4719 12.3573 15.2032 12.3573 14.8719Z" fill="#363853"/>
</svg>